<svg width="150" height="153" viewBox="0 0 150 153" fill="none" xmlns="http://www.w3.org/2000/svg">
<rect y="2" width="150" height="150" rx="25" fill="#7A68ED"/>
<path d="M46.0625 122V105.875H68.75C74.5833 105.875 79.4375 104.833 83.3125 102.75C87.1875 100.667 90.1042 97.4792 92.0625 93.1875C94.0208 88.8542 95 83.3542 95 76.6875C95 70.0208 94.0208 64.5417 92.0625 60.25C90.1458 55.9167 87.25 52.7292 83.375 50.6875C79.5 48.6458 74.6667 47.625 68.875 47.625H45.625V31.5H69.8125C78.8958 31.5 86.7292 33.3125 93.3125 36.9375C99.9375 40.5208 105 45.7083 108.5 52.5C112.042 59.2917 113.812 67.3542 113.812 76.6875C113.812 86.0625 112.042 94.1458 108.5 100.938C104.958 107.729 99.8542 112.938 93.1875 116.562C86.5625 120.188 78.6875 122 69.5625 122H46.0625ZM56.4375 122H37.6875V31.5H56.4375V122Z" fill="white"/>
</svg>
